HIERARCHY
ROOT hip
{
  OFFSET 0 0 0
  CHANNELS 6 Xposition Yposition Zposition Zrotation Yrotation Xrotation
  JOINT abdomen
  {
    OFFSET 0 20.6881 -0.73152
    CHANNELS 3 Zrotation Xrotation Yrotation
    JOINT chest
    {
      OFFSET 0 11.7043 -0.48768
      CHANNELS 3 Zrotation Xrotation Yrotation
      JOINT neck
      {
        OFFSET 0 22.1894 -2.19456
        CHANNELS 3 Zrotation Xrotation Yrotation
        JOINT head
        {
          OFFSET -0.24384 7.07133 1.2192
          CHANNELS 3 Zrotation Xrotation Yrotation
          JOINT leftEye
          {
            OFFSET 4.14528 8.04674 8.04672
            CHANNELS 3 Zrotation Xrotation Yrotation
            End Site
            {
              OFFSET 1 0 0
            }
          }
          JOINT rightEye
          {
            OFFSET -3.6576 8.04674 8.04672
            CHANNELS 3 Zrotation Xrotation Yrotation
            End Site
            {
              OFFSET 1 0 0
            }
          }
        }
      }
      JOINT rCollar
      {
        OFFSET -2.68224 19.2634 -4.8768
        CHANNELS 3 Zrotation Xrotation Yrotation
        JOINT rShldr
        {
          OFFSET -8.77824 -1.95073 1.46304
          CHANNELS 3 Zrotation Xrotation Yrotation
          JOINT rForeArm
          {
            OFFSET -28.1742 -1.7115 0.48768
            CHANNELS 3 Zrotation Xrotation Yrotation
            JOINT rHand
            {
              OFFSET -22.5879 0.773209 7.07136
              CHANNELS 3 Zrotation Xrotation Yrotation
              JOINT rThumb1
              {
                OFFSET -1.2192 -0.487915 3.41376
                CHANNELS 3 Zrotation Xrotation Yrotation
                JOINT rThumb2
                {
                  OFFSET -3.37035 -0.52449 3.41376
                  CHANNELS 3 Zrotation Xrotation Yrotation
                  End Site
                  {
                    OFFSET -1.78271 -1.18214 1.43049
                  }
                }
              }
              JOINT rIndex1
              {
                OFFSET -7.75947 0.938293 5.60832
                CHANNELS 3 Zrotation Xrotation Yrotation
                JOINT rIndex2
                {
                  OFFSET -2.54057 -0.884171 1.56538
                  CHANNELS 3 Zrotation Xrotation Yrotation
                  End Site
                  {
                    OFFSET -1.62519 -0.234802 1.16502
                  }
                }
              }
              JOINT rMid1
              {
                OFFSET -8.24714 1.18213 3.41376
                CHANNELS 3 Zrotation Xrotation Yrotation
                JOINT rMid2
                {
                  OFFSET -3.10165 -0.590103 1.0647
                  CHANNELS 3 Zrotation Xrotation Yrotation
                  End Site
                  {
                    OFFSET -2.48547 -0.328903 0.83742
                  }
                }
              }
              JOINT rRing1
              {
                OFFSET -8.82822 0.546677 1.51678
                CHANNELS 3 Zrotation Xrotation Yrotation
                JOINT rRing2
                {
                  OFFSET -2.60934 -0.819778 -0.0198488
                  CHANNELS 3 Zrotation Xrotation Yrotation
                  End Site
                  {
                    OFFSET -2.33842 -0.294052 0.168128
                  }
                }
              }
              JOINT rPinky1
              {
                OFFSET -8.27202 -0.0477905 -0.4584
                CHANNELS 3 Zrotation Xrotation Yrotation
                JOINT rPinky2
                {
                  OFFSET -1.82734 -0.647385 -0.700984
                  CHANNELS 3 Zrotation Xrotation Yrotation
                  End Site
                  {
                    OFFSET -1.69225 -0.51767 -0.607171
                  }
                }
              }
            }
          }
        }
      }
      JOINT lCollar
      {
        OFFSET 2.68224 19.2634 -4.8768
        CHANNELS 3 Zrotation Xrotation Yrotation
        JOINT lShldr
        {
          OFFSET 8.77824 -1.95073 1.46304
          CHANNELS 3 Zrotation Xrotation Yrotation
          JOINT lForeArm
          {
            OFFSET 28.1742 -1.7115 0.48768
            CHANNELS 3 Zrotation Xrotation Yrotation
            JOINT lHand
            {
              OFFSET 22.5879 0.773209 7.07136
              CHANNELS 3 Zrotation Xrotation Yrotation
              JOINT lThumb1
              {
                OFFSET 1.2192 -0.487915 3.41376
                CHANNELS 3 Zrotation Xrotation Yrotation
                JOINT lThumb2
                {
                  OFFSET 3.37035 -0.52449 3.41376
                  CHANNELS 3 Zrotation Xrotation Yrotation
                  End Site
                  {
                    OFFSET 1.78271 -1.18214 1.43049
                  }
                }
              }
              JOINT lIndex1
              {
                OFFSET 7.75947 0.938293 5.60832
                CHANNELS 3 Zrotation Xrotation Yrotation
                JOINT lIndex2
                {
                  OFFSET 2.54057 -0.884171 1.56538
                  CHANNELS 3 Zrotation Xrotation Yrotation
                  End Site
                  {
                    OFFSET 1.62519 -0.234802 1.16502
                  }
                }
              }
              JOINT lMid1
              {
                OFFSET 8.24714 1.18213 3.41376
                CHANNELS 3 Zrotation Xrotation Yrotation
                JOINT lMid2
                {
                  OFFSET 3.10165 -0.590103 1.0647
                  CHANNELS 3 Zrotation Xrotation Yrotation
                  End Site
                  {
                    OFFSET 2.48547 -0.328903 0.83742
                  }
                }
              }
              JOINT lRing1
              {
                OFFSET 8.82822 0.546677 1.51678
                CHANNELS 3 Zrotation Xrotation Yrotation
                JOINT lRing2
                {
                  OFFSET 2.60934 -0.819778 -0.0198488
                  CHANNELS 3 Zrotation Xrotation Yrotation
                  End Site
                  {
                    OFFSET 2.33842 -0.294052 0.168128
                  }
                }
              }
              JOINT lPinky1
              {
                OFFSET 8.27202 -0.0477905 -0.4584
                CHANNELS 3 Zrotation Xrotation Yrotation
                JOINT lPinky2
                {
                  OFFSET 1.82734 -0.647385 -0.700984
                  CHANNELS 3 Zrotation Xrotation Yrotation
                  End Site
                  {
                    OFFSET 1.69225 -0.51767 -0.607171
                  }
                }
              }
            }
          }
        }
      }
    }
  }
  JOINT rButtock
  {
    OFFSET -8.77824 4.35084 1.2192
    CHANNELS 3 Zrotation Xrotation Yrotation
    JOINT rThigh
    {
      OFFSET 0 -1.70687 -2.19456
      CHANNELS 3 Zrotation Xrotation Yrotation
      JOINT rShin
      {
        OFFSET 0 -36.8199 0.73152
        CHANNELS 3 Zrotation Xrotation Yrotation
        JOINT rFoot
        {
          OFFSET 0.73152 -45.1104 -5.12064
          CHANNELS 3 Zrotation Xrotation Yrotation
          End Site
          {
            OFFSET -1.1221 -3.69964 12.103
          }
        }
      }
    }
  }
  JOINT lButtock
  {
    OFFSET 8.77824 4.35084 1.2192
    CHANNELS 3 Zrotation Xrotation Yrotation
    JOINT lThigh
    {
      OFFSET 0 -1.70687 -2.19456
      CHANNELS 3 Zrotation Xrotation Yrotation
      JOINT lShin
      {
        OFFSET 0 -36.8199 0.73152
        CHANNELS 3 Zrotation Xrotation Yrotation
        JOINT lFoot
        {
          OFFSET -0.73152 -45.1104 -5.12064
          CHANNELS 3 Zrotation Xrotation Yrotation
          End Site
          {
            OFFSET 1.1221 -3.69964 12.103
          }
        }
      }
    }
  }
}
MOTION
Frames:	4
Frame Time:	0.00833333
-35.6538 84.1002 1.86383 0.0 0.0 0.0 -1.51927 -0.00282934 -0.0413938 -0.418703 0.00102638 -0.0725119 -1.58365e-14 7.95139e-16 4.96961e-17 -4.72424e-14 3.18055e-15 -2.64011e-17 -0.0 0.0 0.0 -0.0 0.0 0.0 -7.60511e-15 -4.27076e-18 9.93923e-17 -1.63081e-13 0.0 1.98785e-16 -2.81365e-12 8.42648e-13 3.49861e-14 -3.2224e-11 -8.4732e-13 -7.95139e-14 -7.60034e-11 -1.12082e-14 -6.04305e-14 -1.31271e-10 -1.90833e-14 -9.46215e-14 -7.59998e-11 -1.15295e-14 -7.31528e-14 7.73091 5.47488 0.417314 -7.6005e-11 -1.14301e-14 -5.40694e-14 2.90554 0.965183 0.102902 -7.60019e-11 -1.14301e-14 -5.40694e-14 10.2786 0.731801 0.0259123 -7.60101e-11 -9.54166e-15 -3.81667e-14 2.22167 -0.733487 -0.20892 -7.80122e-15 -1.16475e-18 -1.49089e-16 -1.65014e-13 -1.2424e-16 -1.78906e-15 -2.81971e-12 -8.43046e-13 1.59028e-14 -3.22082e-11 8.30845e-13 -3.49861e-14 -7.59797e-11 -2.60622e-14 -4.13472e-14 -1.31199e-10 -4.77083e-14 -7.15625e-14 -7.59831e-11 -2.54444e-14 -2.8625e-14 -7.73091 5.47488 -0.417314 -7.59786e-11 -2.65378e-14 -4.77083e-14 -2.90554 0.965183 -0.102902 -7.59873e-11 -2.59414e-14 -4.69132e-14 -10.2786 0.731801 -0.0259123 -7.59751e-11 -2.42517e-14 -5.725e-14 -2.22167 -0.733487 0.20892 -2.03217e-16 0.0 -3.88251e-19 -0.640446 -1.92323 -0.00643785 -0.00925534 -2.07856 -0.076434 -0.51225 3.99733 0.140326 2.03217e-16 0.0 3.88251e-19 -1.66965 -6.49784 0.154691 -0.00231121 6.20802 -0.067989 0.533948 0.285479 -0.0665566
-35.0847 81.8336 -3.88172 -105.978 86.8959 -91.4661 -0.689074 2.32017 1.45288 1.03338 0.416331 0.394145 0.311632 0.281461 -0.667693 -1.93188 6.56566 -0.123111 -0.0 0.0 0.0 -0.0 0.0 0.0 -8.38619e-15 -8.86019e-14 -6.12622e-15 25.1006 7.75892 7.61815 -3.13191 -1.25901 5.0554 0.270327 -11.5781 -1.5098 2.52232e-10 9.30804e-11 1.54498e-10 4.31673e-10 1.54074e-10 2.74286e-10 2.52235e-10 9.30796e-11 1.54487e-10 7.73091 5.47488 0.417314 2.52232e-10 9.30806e-11 1.54508e-10 2.90554 0.965183 0.102902 2.52235e-10 9.30804e-11 1.54505e-10 10.2786 0.731801 0.0259123 2.52225e-10 9.30819e-11 1.54519e-10 2.22167 -0.733487 -0.20892 -8.60347e-15 -8.86021e-14 -6.37353e-15 -24.8059 22.7668 -8.96103 3.63138 -1.54812 -5.77766 -0.181166 -9.46604 1.26574 4.08958e-10 2.25035e-10 -6.87975e-11 7.04868e-10 3.81109e-10 -1.05507e-10 4.08954e-10 2.25035e-10 -6.87865e-11 -7.73091 5.47488 -0.417314 4.08959e-10 2.25033e-10 -6.8802e-11 -2.90554 0.965183 -0.102902 4.08952e-10 2.25034e-10 -6.88026e-11 -10.2786 0.731801 -0.0259123 4.08963e-10 2.25035e-10 -6.88119e-11 -2.22167 -0.733487 0.20892 -2.03217e-16 0.0 -3.88251e-19 -3.00106 -10.7467 -1.51851 -0.00512105 7.16657 0.0559238 -0.594544 1.42836 -1.82783 2.03217e-16 0.0 3.88251e-19 1.90295 -14.6453 2.3762 -0.017286 14.1975 -0.21486 0.30298 -2.43848 -0.969953
-35.0843 81.8342 -3.88746 -106.51 86.9128 -92.0029 0.0568444 4.77058 3.03883 2.56088 0.855437 0.887035 0.647485 0.579096 -1.37296 -3.94397 13.5058 -0.257263 -0.0 0.0 0.0 -0.0 0.0 0.0 -9.18952e-15 -1.86901e-13 -1.25265e-14 49.3437 15.5046 16.1282 -6.20339 -2.55798 10.4093 -0.163197 -23.7942 -3.32607 6.10606e-10 1.97684e-10 3.31533e-10 1.04605e-09 3.2724e-10 5.88146e-10 6.10609e-10 1.97683e-10 3.31524e-10 7.73091 5.47488 0.417314 6.10607e-10 1.97685e-10 3.31547e-10 2.90554 0.965183 0.102902 6.10609e-10 1.97684e-10 3.3154e-10 10.2786 0.731801 0.0259123 6.10597e-10 1.97686e-10 3.31552e-10 2.22167 -0.733487 -0.20892 -9.4285e-15 -1.86905e-13 -1.27719e-14 -40.6123 44.7059 -24.2728 7.1334 -3.13269 -11.9001 0.107094 -19.4642 2.72499 9.45709e-10 4.7397e-10 -1.43804e-10 1.63024e-09 8.0266e-10 -2.20273e-10 9.45705e-10 4.73968e-10 -1.43795e-10 -7.73091 5.47488 -0.417314 9.45709e-10 4.73966e-10 -1.43806e-10 -2.90554 0.965183 -0.102902 9.45705e-10 4.73966e-10 -1.43809e-10 -10.2786 0.731801 -0.0259123 9.45715e-10 4.73968e-10 -1.43817e-10 -2.22167 -0.733487 0.20892 -2.03217e-16 0.0 -3.88251e-19 -6.03232 -20.0524 -3.25977 -0.0486566 16.94 0.203649 -0.87255 -1.28059 -3.90315 2.03217e-16 0.0 3.88251e-19 6.42488 -23.2042 4.9695 0.0151822 22.643 -0.386895 -0.0345626 -5.31473 -1.93
-35.0809 81.8349 -3.89319 -107.331 86.9172 -92.8397 0.605955 6.9474 4.47075 3.91726 1.24663 1.32774 0.954575 0.843923 -2.00327 -5.70651 19.6966 -0.389714 -0.0 0.0 0.0 -0.0 0.0 0.0 -9.94834e-15 -2.65797e-13 -1.85774e-14 68.91 21.5762 24.4573 -8.7367 -3.6596 15.1942 -1.35148 -34.627 -5.39495 9.08704e-10 2.79264e-10 4.63616e-10 1.55756e-09 4.62259e-10 8.23047e-10 9.08706e-10 2.79262e-10 4.63608e-10 7.73091 5.47488 0.417314 9.08706e-10 2.79265e-10 4.63633e-10 2.90554 0.965183 0.102902 9.08708e-10 2.79264e-10 4.63623e-10 10.2786 0.731801 0.0259123 9.08694e-10 2.79265e-10 4.63633e-10 2.22167 -0.733487 -0.20892 -1.0208e-14 -2.65804e-13 -1.88224e-14 -37.3012 57.9935 -52.2414 9.97098 -4.45579 -17.3808 0.85522 -28.3388 4.25638 1.37883e-09 6.75158e-10 -2.0631e-10 2.377e-09 1.14342e-09 -3.16379e-10 1.37883e-09 6.75155e-10 -2.06302e-10 -7.73091 5.47488 -0.417314 1.37883e-09 6.75152e-10 -2.06311e-10 -2.90554 0.965183 -0.102902 1.37883e-09 6.75152e-10 -2.06314e-10 -10.2786 0.731801 -0.0259123 1.37884e-09 6.75154e-10 -2.06321e-10 -2.22167 -0.733487 0.20892 -2.03217e-16 0.0 -3.88251e-19 -9.28266 -28.3108 -5.07055 -0.134804 25.6564 0.354145 -1.28814 -3.68866 -5.77375 2.03217e-16 0.0 3.88251e-19 11.2205 -30.7494 7.67345 0.0941213 30.1754 -0.566476 -0.41864 -7.87814 -2.80057
